# xmcd
#
# Track frame offsets: 
#        150
#        16157
#        40117
#        58025
#        72677
#        91952
#        130760
#        151165
#
# Disc length: 2424 seconds
#
# Revision: 3
# Processed by: cddbd v1.5.2PL0 Copyright (c) Steve Scherf et al.
# Submitted via: ExactAudioCopyFreeDBPlugin 1.0
#
DISCID=61097608
DTITLE=B.B. King - To Know You Is To Love You
DYEAR=1973
DGENRE=Blues
TTITLE0=I Like To Live The Love
TTITLE1=Respect Yourself
TTITLE2=Who Are You
TTITLE3=Love
TTITLE4=I Can't Leave
TTITLE5=To Know You Is To Love You
TTITLE6=Oh To Me
TTITLE7=Thank You For Loving The Blues
EXTD=YEAR: 1973 ID3G: 0
EXTT0=
EXTT1=
EXTT2=
EXTT3=
EXTT4=
EXTT5=
EXTT6=
EXTT7=
PLAYORDER=
